<mxfile host="app.diagrams.net" modified="2023-06-19T04:31:06.142Z" agent="Mozilla/5.0 (Macintosh; Intel Mac OS X 10_15_7) AppleWebKit/537.36 (KHTML, like Gecko) Chrome/114.0.0.0 Safari/537.36" version="21.5.0" etag="rkfUisSVSYaA1bd6PC47" type="github">
  <diagram name="Page-1" id="Nos6C6q1mrtiuGqNr0FP">
    <mxGraphModel>
      <root>
        <mxCell id="0" />
        <mxCell id="1" parent="0" />
      </root>
    </mxGraphModel>
  </diagram>
</mxfile>
